<svg viewBox="0 0 600 400" xmlns="http://www.w3.org/2000/svg">
<g transform="translate(72, 364)">
<g>
<g>
<rect fill="#DD3355" height="10" width="10" x="63.57142857142857" y="-31.177225542851605"/>
<rect fill="#DD3355" height="10" width="10" x="132.14285714285714" y="-80.11928848798902"/>
<rect fill="#DD3355" height="10" width="10" x="200.71428571428572" y="-134.21142406280194"/>
<rect fill="#DD3355" height="10" width="10" x="269.2857142857143" y="-188.7493170676546"/>
<rect fill="#DD3355" height="10" width="10" x="337.85714285714283" y="-243.13575758356544"/>
<rect fill="#DD3355" height="10" width="10" x="406.42857142857144" y="-298.59447201012813"/>
</g>
</g>
<g transform="translate(380, -340)">
<text font-size="12" text-anchor="start" x="0" y="0">
mult
</text>
</g>
<g>
<g>
<path d="M63.57143,-19.725882 l10,10 m-10,0 l10,-10 z" fill="none" stroke="#35C788" stroke-width="2"/>
<path d="M132.14285,-29.887276 l10,10 m-10,0 l10,-10 z" fill="none" stroke="#35C788" stroke-width="2"/>
<path d="M200.71428,-139.5627 l10,10 m-10,0 l10,-10 z" fill="none" stroke="#35C788" stroke-width="2"/>
<path d="M269.2857,-191.78499 l10,10 m-10,0 l10,-10 z" fill="none" stroke="#35C788" stroke-width="2"/>
<path d="M337.85715,-246.1578 l10,10 m-10,0 l10,-10 z" fill="none" stroke="#35C788" stroke-width="2"/>
<path d="M406.42856,-300.87943 l10,10 m-10,0 l10,-10 z" fill="none" stroke="#35C788" stroke-width="2"/>
</g>
</g>
<g transform="translate(380, -322)">
<text font-size="12" text-anchor="start" x="0" y="0">
mult_recur
</text>
</g>
<g>
<g>
<circle cx="68.57142857142857" cy="-14.725881036303717" fill="#00A4FF" r="5"/>
<circle cx="137.14285714285714" cy="-21.182097945916944" fill="#00A4FF" r="5"/>
<circle cx="205.71428571428572" cy="-40.8" fill="#00A4FF" r="5"/>
<circle cx="274.2857142857143" cy="-66.79470680852735" fill="#00A4FF" r="5"/>
<circle cx="342.85714285714283" cy="-13.6" fill="#00A4FF" r="5"/>
<circle cx="411.42857142857144" cy="-13.6" fill="#00A4FF" r="5"/>
</g>
</g>
<g transform="translate(380, -304)">
<text font-size="12" text-anchor="start" x="0" y="0">
mult_recur_pro
</text>
</g>
<g>
<g>
<line stroke="black" stroke-width="1" x1="0" x2="0" y1="0" y2="10"/>
<line stroke="black" stroke-width="1" x1="137.14285714285714" x2="137.14285714285714" y1="0" y2="10"/>
<line stroke="black" stroke-width="1" x1="274.2857142857143" x2="274.2857142857143" y1="0" y2="10"/>
<line stroke="black" stroke-width="1" x1="411.42857142857144" x2="411.42857142857144" y1="0" y2="10"/>
</g>
<line stroke="black" stroke-width="1" x1="0" x2="480" y1="0" y2="0"/>
<g>
<text font-size="12" text-anchor="middle" x="0" y="20">
0
</text>
<text font-size="12" text-anchor="middle" x="137.14285714285714" y="20">
2
</text>
<text font-size="12" text-anchor="middle" x="274.2857142857143" y="20">
4
</text>
<text font-size="12" text-anchor="middle" x="411.42857142857144" y="20">
6
</text>
</g>
<text font-size="12" text-anchor="middle" x="240" y="30">
log of length
</text>
</g>
<g>
<g>
<line stroke="black" stroke-width="1" x1="0" x2="-10" y1="-68" y2="-68"/>
<line stroke="black" stroke-width="1" x1="0" x2="-10" y1="-204" y2="-204"/>
<line stroke="black" stroke-width="1" x1="0" x2="-10" y1="-340" y2="-340"/>
</g>
<line stroke="black" stroke-width="1" x1="0" x2="0" y1="0" y2="-340"/>
<g>
<text dominant-baseline="middle" font-size="12" text-anchor="end" x="-15" y="-68">
0
</text>
<text dominant-baseline="middle" font-size="12" text-anchor="end" x="-15" y="-204">
5
</text>
<text dominant-baseline="middle" font-size="12" text-anchor="end" x="-15" y="-340">
10
</text>
</g>
<text font-size="12" text-anchor="middle" transform="rotate(-90 -24 -170)" x="-24" y="-182">
log of time
</text>
</g>
</g>
</svg>